<?xml version="1.0" encoding="UTF-8"?><svg id="Layer_2" xmlns="http://www.w3.org/2000/svg" viewBox="0 0 166.11 47"><defs><style>.cls-1{fill:#fff;}</style></defs><g id="TREE"><path class="cls-1" d="m2.48,34.33v-16.89H0v-4.02h9.16v4.02h-2.48v16.89H2.48Z"/><path class="cls-1" d="m10.33,13.42h6.43c1.02,0,1.81.23,2.37.69.56.46.94,1.11,1.13,1.95.2.84.29,1.9.29,3.2,0,1.18-.15,2.11-.46,2.77-.31.67-.84,1.13-1.61,1.39.63.13,1.09.45,1.38.95.28.5.43,1.18.43,2.04l-.05,7.91h-4.09v-8.18c0-.58-.11-.96-.34-1.12-.23-.16-.64-.24-1.24-.24v9.54h-4.24V13.42Zm5.26,7.74c.58,0,.88-.63.88-1.9,0-.55-.02-.97-.07-1.24-.05-.28-.14-.47-.27-.57-.13-.11-.32-.16-.56-.16h-.97v3.87h1Z"/><path class="cls-1" d="m21.95,34.33V13.42h8.38v4.04h-4.12v4.07h3.95v3.94h-3.95v4.8h4.38v4.07h-8.65Z"/><path class="cls-1" d="m31.98,34.33V13.42h8.38v4.04h-4.12v4.07h3.95v3.94h-3.95v4.8h4.38v4.07h-8.65Z"/><path class="cls-1" d="m86.61,13.42h5.77c1.49,0,2.61.41,3.36,1.24.75.83,1.13,2.05,1.14,3.68l.05,9.79c.02,2.06-.34,3.61-1.07,4.65-.73,1.04-1.94,1.56-3.63,1.56h-5.63V13.42Zm4.94,17.21c.76,0,1.14-.37,1.14-1.12v-10.78c0-.47-.04-.82-.11-1.06-.07-.23-.21-.39-.4-.47-.19-.08-.5-.12-.9-.12h-.46v13.56h.73Z"/><path class="cls-1" d="m99.76,32.97c-.88-1.03-1.32-2.48-1.32-4.35v-9.96c0-1.8.44-3.16,1.32-4.08.88-.92,2.16-1.38,3.85-1.38s2.97.46,3.85,1.38c.88.92,1.32,2.28,1.32,4.08v9.96c0,1.88-.44,3.33-1.32,4.36-.88,1.02-2.16,1.53-3.85,1.53s-2.97-.52-3.85-1.55Zm4.6-2.79c.13-.32.19-.78.19-1.36v-10.22c0-.45-.06-.82-.18-1.11-.12-.28-.37-.43-.74-.43-.7,0-1.05.53-1.05,1.58v10.2c0,.6.07,1.06.22,1.36.15.31.41.46.8.46s.62-.16.76-.49Z"/><path class="cls-1" d="m110.46,34.33V13.42h4.31l1.92,10v-10h4.04v20.91h-4.09l-2.09-10.47v10.47h-4.09Z"/><path class="cls-1" d="m122.03,34.33l2.02-20.91h7.09l2,20.91h-3.97l-.29-3.38h-2.53l-.24,3.38h-4.07Zm4.63-6.72h1.9l-.93-10.64h-.2l-.78,10.64Z"/><path class="cls-1" d="m136.2,34.33v-16.89h-2.48v-4.02h9.16v4.02h-2.48v16.89h-4.19Z"/><path class="cls-1" d="m145.19,32.97c-.88-1.03-1.32-2.48-1.32-4.35v-9.96c0-1.8.44-3.16,1.32-4.08.88-.92,2.16-1.38,3.85-1.38s2.97.46,3.85,1.38c.88.92,1.32,2.28,1.32,4.08v9.96c0,1.88-.44,3.33-1.32,4.36-.88,1.02-2.16,1.53-3.85,1.53s-2.97-.52-3.85-1.55Zm4.6-2.79c.13-.32.19-.78.19-1.36v-10.22c0-.45-.06-.82-.18-1.11-.12-.28-.37-.43-.74-.43-.7,0-1.05.53-1.05,1.58v10.2c0,.6.07,1.06.22,1.36.15.31.41.46.8.46s.62-.16.76-.49Z"/><path class="cls-1" d="m155.88,13.42h6.43c1.02,0,1.81.23,2.38.69.56.46.94,1.11,1.13,1.95.19.84.29,1.9.29,3.2,0,1.18-.15,2.11-.46,2.77-.31.67-.84,1.13-1.61,1.39.63.13,1.09.45,1.38.95.28.5.43,1.18.43,2.04l-.05,7.91h-4.09v-8.18c0-.58-.11-.96-.34-1.12-.23-.16-.64-.24-1.24-.24v9.54h-4.24V13.42Zm5.26,7.74c.58,0,.88-.63.88-1.9,0-.55-.02-.97-.07-1.24-.05-.28-.14-.47-.27-.57-.13-.11-.32-.16-.56-.16h-.97v3.87h1Z"/></g><g id="Layer_7"><path class="cls-1" d="m86.18,0c-.87,2.8-17.95,5.08-22.16,5.44-9.77.92-13.6,5.94-13.6,5.94h0c-2.38,2.28-3.87,5.49-3.87,9.04,0,1.47.25,2.87.72,4.18,0,0,0,0,0,0,0,0,0,.02,0,.02.16.46.36.91.57,1.34.29.66.6,1.32.93,1.98,1.27-3.49,6.73-14.75,25.07-17.82.15.05-16.24,3.05-22.67,22.25,4.53,7.75,10.14,14.61,10.14,14.61,6.46-7.66,10.96-16.73,11.04-16.81-6.73,4.08-11.62,2.74-11.62,2.74v-.02C79.55,32.25,86.21.13,86.18,0Z"/></g></svg>