<?xml version="1.0" encoding="UTF-8"?><svg id="Layer_2" xmlns="http://www.w3.org/2000/svg" viewBox="0 0 109.12 24.18"><defs><style>.cls-1,.cls-2{fill:#fff;}.cls-2{font-family:AdventPro-Regular, 'Advent Pro';font-size:17px;}.cls-3{letter-spacing:-.1em;}.cls-4{letter-spacing:-.05em;}.cls-5{letter-spacing:-.03em;}</style></defs><g id="Layer_1-2"><path class="cls-1" d="m9.43,2.69c-.27.25-.64.61-1.03,1.06l1.03,1.03v-2.09Z"/><path class="cls-1" d="m9.92,9.7l2.93-2.93c-.19-.48-.42-.93-.67-1.35l-2.26,2.26v2.02Z"/><path class="cls-1" d="m9.92,6.98l1.99-1.99c-.7-1.04-1.5-1.85-1.99-2.31v4.29Z"/><path class="cls-1" d="m9.43,10.4l-3.11-3.11c-.16.52-.26,1.06-.28,1.62l3.39,3.39v-1.9Z"/><path class="cls-1" d="m9.43,7.58v-2.1l-1.35-1.35c-.59.72-1.19,1.63-1.58,2.64l2.93,2.93v-2.13Z"/><path class="cls-1" d="m9.92,12.89v2.55c1.03-.95,3.39-3.45,3.39-6.38,0-.62-.11-1.21-.28-1.78l-3.11,3.11v2.49Z"/><path class="cls-1" d="m9.67,23.05c-.08,0-.16-.04-.21-.12l-1.17-1.87c-5.34.14-8.3,1-8.3,1.55s3.32,1.57,9.67,1.57,9.67-1.02,9.67-1.57-2.95-1.41-8.3-1.55l-1.17,1.87c-.05.07-.12.12-.21.12Z"/><path class="cls-1" d="m9.67,22.34l1.04-1.65h0s5.56-8.87,5.56-8.87c0,0,0,0,0-.01.75-1.22,1.14-2.62,1.14-4.05,0-4.27-3.48-7.75-7.75-7.75S1.92,3.48,1.92,7.75c0,1.43.4,2.84,1.14,4.05,0,0,0,0,0,.01l5.56,8.87s0,0,0,0l1.04,1.65Zm-.57-20.02c.33-.3.82-.3,1.15,0,1.07.99,3.56,3.62,3.56,6.75s-2.49,5.76-3.56,6.75c-.16.15-.37.23-.57.23s-.41-.08-.57-.23c-1.07-.99-3.56-3.62-3.56-6.75s2.49-5.76,3.56-6.75Z"/><path class="cls-1" d="m6.06,9.63c.27,2.68,2.41,4.93,3.37,5.81v-2.45l-3.37-3.37Z"/><text class="cls-2" transform="translate(20.83 17.47)"><tspan class="cls-3" x="0" y="0">T</tspan><tspan class="cls-4" x="5.1" y="0">r</tspan><tspan x="9.98" y="0">ee Don</tspan><tspan class="cls-5" x="55.98" y="0">a</tspan><tspan x="63.33" y="0">tion</tspan></text></g></svg>