<?xml version="1.0" encoding="UTF-8"?><svg id="Layer_2" xmlns="http://www.w3.org/2000/svg" viewBox="0 0 2447.52 692.45"><defs><style>.cls-1{fill:#181d27;}.cls-2{fill:#4aa069;}</style></defs><g id="Layer_7"><path class="cls-1" d="m36.61,505.75v-248.92H0v-59.18h134.94v59.18h-36.61v248.92h-61.73Z"/><path class="cls-1" d="m152.17,197.66h94.75c15.07,0,26.74,3.41,34.99,10.22,8.25,6.82,13.82,16.38,16.69,28.69,2.87,12.32,4.31,28.04,4.31,47.17,0,17.46-2.28,31.09-6.82,40.89-4.55,9.81-12.44,16.62-23.69,20.44,9.33,1.92,16.09,6.58,20.28,13.99,4.18,7.41,6.28,17.46,6.28,30.13l-.72,116.57h-60.29v-120.51c0-8.61-1.68-14.11-5.02-16.5-3.35-2.39-9.45-3.59-18.3-3.59v140.6h-62.45V197.66Zm77.52,114.06c8.61,0,12.92-9.33,12.92-27.98,0-8.13-.36-14.22-1.08-18.29-.72-4.06-2.04-6.87-3.95-8.43-1.92-1.55-4.67-2.33-8.25-2.33h-14.36v57.03h14.71Z"/><path class="cls-1" d="m323.36,505.75V197.66h123.46v59.54h-60.65v59.9h58.14v58.1h-58.14v70.66h64.6v59.9h-127.41Z"/><path class="cls-1" d="m471.22,505.75V197.66h123.46v59.54h-60.65v59.9h58.14v58.1h-58.14v70.66h64.6v59.9h-127.41Z"/><path class="cls-1" d="m1276.12,197.66h85.06c22.01,0,38.52,6.1,49.53,18.29,11,12.19,16.63,30.25,16.87,54.16l.72,144.18c.24,30.37-5.02,53.21-15.79,68.5-10.77,15.31-28.59,22.96-53.48,22.96h-82.9V197.66Zm72.86,253.58c11.24,0,16.87-5.5,16.87-16.5v-158.89c0-6.93-.54-12.13-1.62-15.6-1.08-3.46-3.05-5.79-5.92-6.99-2.87-1.19-7.3-1.79-13.28-1.79h-6.82v199.78h10.77Z"/><path class="cls-1" d="m1469.92,485.85c-12.92-15.18-19.38-36.52-19.38-64.02v-146.7c0-26.54,6.46-46.56,19.38-60.08,12.92-13.51,31.82-20.26,56.71-20.26s43.79,6.76,56.71,20.26c12.92,13.51,19.38,33.54,19.38,60.08v146.7c0,27.74-6.46,49.14-19.38,64.2-12.92,15.06-31.82,22.6-56.71,22.6s-43.79-7.59-56.71-22.78Zm67.83-41.07c1.91-4.78,2.87-11.48,2.87-20.08v-150.64c0-6.69-.9-12.13-2.69-16.32-1.79-4.18-5.44-6.28-10.95-6.28-10.29,0-15.43,7.77-15.43,23.31v150.28c0,8.85,1.08,15.55,3.23,20.09,2.15,4.54,6.1,6.81,11.84,6.81s9.21-2.39,11.13-7.17Z"/><path class="cls-1" d="m1627.47,505.75V197.66h63.52l28.35,147.41v-147.41h59.58v308.09h-60.29l-30.87-154.23v154.23h-60.29Z"/><path class="cls-1" d="m1797.94,505.75l29.79-308.09h104.44l29.43,308.09h-58.5l-4.31-49.85h-37.33l-3.59,49.85h-59.93Zm68.19-98.99h27.99l-13.64-156.74h-2.87l-11.48,156.74Z"/><path class="cls-1" d="m2006.81,505.75v-248.92h-36.61v-59.18h134.94v59.18h-36.61v248.92h-61.73Z"/><path class="cls-1" d="m2139.24,485.85c-12.92-15.18-19.38-36.52-19.38-64.02v-146.7c0-26.54,6.46-46.56,19.38-60.08,12.92-13.51,31.82-20.26,56.71-20.26s43.79,6.76,56.71,20.26c12.92,13.51,19.38,33.54,19.38,60.08v146.7c0,27.74-6.46,49.14-19.38,64.2-12.92,15.06-31.82,22.6-56.71,22.6s-43.79-7.59-56.71-22.78Zm67.83-41.07c1.91-4.78,2.87-11.48,2.87-20.08v-150.64c0-6.69-.9-12.13-2.69-16.32-1.79-4.18-5.44-6.28-10.95-6.28-10.29,0-15.43,7.77-15.43,23.31v150.28c0,8.85,1.08,15.55,3.23,20.09,2.15,4.54,6.1,6.81,11.84,6.81s9.21-2.39,11.13-7.17Z"/><path class="cls-1" d="m2296.79,197.66h94.75c15.07,0,26.74,3.41,34.99,10.22,8.25,6.82,13.82,16.38,16.69,28.69,2.87,12.32,4.31,28.04,4.31,47.17,0,17.46-2.28,31.09-6.82,40.89-4.55,9.81-12.44,16.62-23.69,20.44,9.33,1.92,16.09,6.58,20.28,13.99,4.18,7.41,6.28,17.46,6.28,30.13l-.72,116.57h-60.29v-120.51c0-8.61-1.68-14.11-5.02-16.5-3.35-2.39-9.45-3.59-18.3-3.59v140.6h-62.45V197.66Zm77.52,114.06c8.61,0,12.92-9.33,12.92-27.98,0-8.13-.36-14.22-1.08-18.29-.72-4.06-2.04-6.87-3.95-8.43-1.92-1.55-4.67-2.33-8.25-2.33h-14.36v57.03h14.71Z"/><path class="cls-2" d="m1269.81,0c-12.85,41.19-264.51,74.82-326.48,80.11-143.97,13.6-200.41,87.52-200.41,87.52l.04.02c-35.08,33.56-56.96,80.8-56.96,133.18,0,21.61,3.75,42.35,10.59,61.62,0,0-.03,0-.03,0,.05.11.1.23.14.34,2.42,6.78,5.23,13.38,8.4,19.77,4.28,9.68,8.88,19.43,13.72,29.22,18.71-51.48,99.15-217.36,369.41-262.51,2.22.74-239.35,44.93-334.01,327.86,66.78,114.18,149.44,215.33,149.44,215.33,95.22-112.79,161.54-246.56,162.67-247.69-99.19,60.08-171.18,40.43-171.18,40.43v-.23C1172.08,475.18,1270.19,1.87,1269.81,0Z"/></g></svg>