<svg xmlns="http://www.w3.org/2000/svg" xmlns:xlink="http://www.w3.org/1999/xlink" width="165.077" height="130.051" viewBox="0 0 165.077 130.051">
  <defs>
    <clipPath id="clip-path">
      <rect id="Rechteck_78" data-name="Rechteck 78" width="165.077" height="130.051" fill="none"/>
    </clipPath>
  </defs>
  <g id="Gruppe_35" data-name="Gruppe 35" clip-path="url(#clip-path)">
    <path id="Pfad_212" data-name="Pfad 212" d="M1.584,129.924c-.108-.2-1.473.26-1.568.087s.215-.34,1.11-.906,2.442-1.446,4.938-2.812c12.245-6.4,24.7-12.494,37.468-18.032a418.3,418.3,0,0,1,39.136-14.94c6.681-2.159,13.456-4.118,20.285-5.824l2.57-.666,2.584-.593c.861-.193,1.716-.406,2.584-.586l2.6-.546c.868-.187,1.736-.36,2.6-.526l2.61-.5c1.749-.307,3.492-.633,5.248-.9,3.505-.566,7.037-1.046,10.576-1.426q2.657-.293,5.308-.52c1.763-.147,3.532-.28,5.248-.406l1.272-.1.626-.047h.612l.592-.06h.289l.262-.033.518-.067.262-.04h.135a1.2,1.2,0,0,0,.37-.12.478.478,0,0,0,.269-.253.148.148,0,0,0,0-.093h-.081l-.161-.107c-.087-.047-.175-.1-.262-.14l-1.1-.546-1.709-.786a67.934,67.934,0,0,0-7.206-2.665A110.3,110.3,0,0,0,124.1,72.33c-5.288-.82-10.664-1.333-16.08-1.726s-10.859-.54-16.322-.573-10.94.053-16.423.253-10.98.493-16.524.833l-4.212.24c-.72.04-1.433.073-2.227.093H51.33l-.962.04c-1.292.067-2.6.167-3.922.287l-1.985.2-1.574.173-2.052.253-4.117.533c-1.346.173-2.745.347-4.077.48a31.229,31.229,0,0,1-3.727.193,10.392,10.392,0,0,1-2.812-.393l-.283-.087-.256-.093c-.175-.06-.323-.127-.484-.193a8.387,8.387,0,0,1-.814-.44c-.242-.153-.464-.313-.673-.473a5.889,5.889,0,0,1-.558-.513,6.024,6.024,0,0,1-.5-.58,5.761,5.761,0,0,1-.5-.793,1.953,1.953,0,0,1-.135-.287l-.061-.16v-.04h0v-.073a5.306,5.306,0,0,1-.188-.553c-.108-.38-.256-.733-.377-1.1.121-.72.209-1.393.336-2.052a13.309,13.309,0,0,1,.552-1.939,15.065,15.065,0,0,1,2.072-3.885,21.28,21.28,0,0,1,3.66-3.792,35.319,35.319,0,0,1,5.382-3.572c1-.553,2.018-1.08,3.1-1.579.532-.253,1.063-.493,1.6-.733l1.009-.433c1.177-.5,2.361-.96,3.539-1.4,2.368-.873,4.71-1.646,7.091-2.359,4.71-1.413,9.466-2.586,14.2-3.625s9.473-1.932,14.216-2.745c9.48-1.626,18.973-2.905,28.466-4q7.112-.82,14.236-1.493l7.111-.666,3.539-.313,1.736-.16.821-.08h.4l.141.946.269,1.733.128.753.121.666c.04.207.081.406.128.606s.061.313.1.473a2.679,2.679,0,0,0,.1.36.349.349,0,0,0,.087.173l-3.364,4.765a27.919,27.919,0,0,0-4.763-2.539,51.293,51.293,0,0,0-5.577-2,99.264,99.264,0,0,0-12.157-2.7,225.922,225.922,0,0,0-25.566-2.492c-4.313-.213-8.645-.333-12.978-.393-2.24-.06-4.4-.06-6.58-.06H57.809l-3.048.047-3.317.06-6.647.147a41.291,41.291,0,0,1-6.055-.193,13.33,13.33,0,0,1-3.936-1.013l-.343-.16-.309-.167-.289-.16c-.087-.06-.188-.113-.269-.173a5.326,5.326,0,0,1-.478-.34c-.161-.113-.3-.24-.437-.36a7.272,7.272,0,0,1-.747-.76,7.137,7.137,0,0,1-.673-.893,7.817,7.817,0,0,1-.606-1.226,7.5,7.5,0,0,1-.37-1.9v-.946c-2.065.253,2.812-.38,2.314-.32l.054-.333.108-.666c.262-1.553.518-3.092.78-4.631l.962-.446.982-.433,1.965-.88,3.916-1.746.982-.433c.323-.147.673-.293,1.009-.433l2.119-.833,4.232-1.659,2.119-.833,1.076-.4.962-.333,2.247-.78L57.2,9.718l1.13-.367,2.234-.706c6.055-1.906,12.191-3.538,18.4-4.844A168.585,168.585,0,0,1,116.913.016c2.96.087,5.281.267,7.051.46l1.224.147,1.029.153c.309.047.592.1.841.147l.363.073.363.073c.673.173.828.273.632.32a3.036,3.036,0,0,1-.572,0l-1.285-.047c-1.944-.06-5.093-.14-8.854-.047-1.884.033-3.909.14-6.015.253s-4.272.307-6.432.533a33.113,33.113,0,0,1,5.793-.133c1.453.087,2.906.173,5.82.107,0,.167-.74.353-2.187.553s-3.606.433-6.472.76-6.425.726-10.677,1.333S88.36,6.173,82.762,7.313C88.36,6.2,94,5.38,99.69,4.82c.713-.047,1.251-.06,1.642-.053a4.37,4.37,0,0,1,.78.053c.269.06.1.167-.242.3s-.875.273-1.305.426-.774.307-.76.42L97.7,6.18l-2.018.24c-1.346.153-2.55.347-3.6.506s-1.917.32-2.523.453-.949.227-.942.28l.155.906c2.772-.473,6.957-1.046,11.155-1.459s8.423-.626,11.229-.666c-5.618.113-11.229.666-11.2.913l.094.913L97.9,8.519l-2.254.287-1.164.147L93.3,9.125c-.8.113-1.615.22-2.429.347-3.283.5-6.728,1.1-10.152,1.793a152.191,152.191,0,0,0-18.905,5.078l.215.666C67.362,15.4,74.07,13.5,80.865,12.03c3.4-.726,6.822-1.373,10.092-1.9.814-.133,1.621-.24,2.415-.36L94.55,9.6l1.164-.147,2.247-.28,2.139-.213a31.024,31.024,0,0,0-4.8.906c-.673.227-.673.4-.612.626q-6.169.893-12.278,2.106c-4.077.82-8.141,1.733-12.151,2.832l-1.507.4-1.5.44c-1,.293-2.018.58-2.994.886-1.978.666-3.963,1.259-5.914,2l-1.467.526c-.215.087-.4.153-.579.233-.363.153-.72.307-1.056.46a16.373,16.373,0,0,0-1.736.926c.875-.36,1.743-.713,2.631-1.033.222-.087.437-.173.673-.247l1.655-.58,1.965-.666,1.971-.666c-.9.406-1.944.82-3.075,1.3-.572.24-1.164.48-1.79.726l-.229.093-.121.047h-.054l-.148.073-.242.127c-.33.173-.673.327-.982.486s-.673.313-1.036.473l-1.561.666-.478.213h-.094a.359.359,0,0,1,0,.12.509.509,0,0,0,0,.247.536.536,0,0,0,.343.293,2.034,2.034,0,0,0,.444.107,16.3,16.3,0,0,0,1.917.073h2.018l6.163.013c5.8-.087,11.733-.067,17.789.12s12.218.54,18.481,1.159A155.911,155.911,0,0,1,118.77,27.4c1.6.36,3.209.76,4.817,1.219s3.223.96,4.837,1.546a52.158,52.158,0,0,1,4.824,2A33.437,33.437,0,0,1,138,34.9l2.738,1.9-.76,1.866c-2.691,6.6-2.644,3.112-3.115,4.318l-.424.127-.2.047h-.41l-.336.04-.5.06-.908.087-1.736.153-3.431.293-6.836.6c-4.548.42-9.1.873-13.637,1.373-9.069,1-18.085,2.179-26.912,3.638A250.165,250.165,0,0,0,55.79,54.958a107.582,107.582,0,0,0-11.828,3.958l-1.346.586-.316.147-.135.073a5.318,5.318,0,0,0-.511.287,3.955,3.955,0,0,0-.834.666,1.544,1.544,0,0,0-.444.753.97.97,0,0,0,0,.14c0,.04,0,.1.047.127a.835.835,0,0,0,.363,0,3.3,3.3,0,0,0,.673-.107l1.177-.24h.323l2.126-.267c1.42-.147,2.853-.273,4.306-.36.727-.047,1.46-.087,2.2-.113h.989l.976-.053c1.346-.073,4.037-.253,4.037-.253s11.1-.72,16.719-.953S85.581,58.989,91.26,59s11.384.173,17.1.533,11.437.926,17.21,1.806a120.1,120.1,0,0,1,17.2,3.812,78.817,78.817,0,0,1,8.484,3.125c.673.307,1.4.666,2.092.96l1.036.52.269.133.2.1.215.113.895.506,1.79,1.013c.585.353,1.124.733,1.689,1.093,1.15.72,2.139,1.513,3.182,2.279.148.093.316.187.451.28l.249.34.5.666.5.666.128.167.061.087a.4.4,0,0,1,0,.08l.094.313.383,1.273.047.16v.04a1.225,1.225,0,0,0,.04.353,7.1,7.1,0,0,1,0,.846,8.3,8.3,0,0,1-.787,3.212A10.523,10.523,0,0,1,162.4,86.2a15.829,15.829,0,0,1-6.492,3.885c-.323.127-.673.213-1.016.313s-.673.2-1.029.287c-.713.153-1.413.32-2.126.453l-.895.14c-.209.04-.437.06-.673.093-.437.053-.895.113-1.278.14-1.621.16-3.068.247-4.535.36s-2.88.213-4.306.333q-4.266.36-8.47.893a239.643,239.643,0,0,0-33.034,6.737c-.067-.227,1.2-.86,1.8-1.286s.545-.666-2.173-.04l-3.815.933c-1.2.287-2.3.593-3.364.846l-2.9.726-2.483.666c-3.061.746-5.113,1.239-6.513,1.486-2.792.486-2.947.06-3.1-.373a8.4,8.4,0,0,1,2.348-1.013l2.355-.82,1.278-.433,1.278-.406c3.364-1.08,6.055-1.919,3.283-1.293,1-.327,2.065-.633,3.142-.96l3.324-1c2.261-.666,4.582-1.333,6.876-1.932,1.15-.307,2.281-.633,3.4-.906l3.27-.833c1.05-.267,2.079-.5,3.048-.733s1.891-.466,2.745-.666c3.431-.793,5.847-1.333,6.344-1.486.256-.093,0-.1-.78,0s-2.213.3-4.292.666c-.673.093-1.669.233-2.812.46s-2.489.5-3.956.82-3.048.72-4.71,1.119-3.364.86-5.059,1.333l-4.9,1.379c-1.628.473-3.2.926-4.642,1.333s-2.758.8-3.889,1.106" transform="translate(0 0)" fill="#1b1b1c"/>
  </g>
</svg>
