<?xml version="1.0" encoding="UTF-8"?><svg id="Layer_2" xmlns="http://www.w3.org/2000/svg" viewBox="0 0 2457.93 692.45"><defs><style>.cls-1{fill:#181d27;font-family:Anton-Regular, Anton;font-size:358.67px;}.cls-2{fill:#4aa069;}</style></defs><g id="Layer_7"><text class="cls-1" transform="translate(0 505.75)"><tspan x="0" y="0">TREE</tspan></text><text class="cls-1" transform="translate(1266.07 505.75)"><tspan x="0" y="0">DONATOR</tspan></text><path class="cls-2" d="m1273.4,0c-12.85,41.19-264.51,74.82-326.48,80.11-143.97,13.6-200.41,87.52-200.41,87.52l.04.02c-35.08,33.56-56.96,80.8-56.96,133.18,0,21.61,3.75,42.35,10.59,61.62,0,0-.03,0-.03,0,.05.11.1.23.14.34,2.42,6.78,5.23,13.38,8.4,19.77,4.28,9.68,8.88,19.43,13.72,29.22,18.71-51.48,99.15-217.36,369.41-262.51,2.22.74-239.35,44.93-334.01,327.86,66.78,114.18,149.44,215.33,149.44,215.33,95.22-112.79,161.54-246.56,162.67-247.69-99.19,60.08-171.18,40.43-171.18,40.43v-.23C1175.67,475.18,1273.78,1.87,1273.4,0Z"/></g></svg>